<svg xmlns="http://www.w3.org/2000/svg" viewBox="0 0 128 128"><path d="M70.8 68.92c1.12 0 2.06.09 3.12.3 5.56 1.1 10.12 5.14 11.98 10.43.54 1.7 1.25 4.25 1.7 6l.59 2.31 2.38-.05C109.51 87.51 125 72.1 125 53c0-28.93-24.13-53-61-53-15.21.05-29.63 5.58-40.55 14.48C9.14 26.21 0 44.04 0 64c.01 5.12.63 10.27 1.78 15.03 4.2 17.43 15.52 32.08 30.71 40.68 9.19 5.18 20.18 8.25 31.51 8.28 2.78 0 5.61-.19 8.29-.53 16.67-2.16 31.32-10.73 41.41-23.14l.66-.81-1.28-4.63-2.47.65c-7.66 2.03-15.51 3.08-23.8 3.07-6.63 0-12.95-.68-19.19-2-5.62-1.13-10.19-5.22-11.99-10.56-.58-1.68-.84-3.24-.83-5.11-.06-4.17 1.37-7.6 3.95-10.53 2.94-3.36 7.25-5.48 12.05-5.48zM64 6c34.12 0 55 21.92 55 47 0 14.99-11.56 27.3-26.23 28.78-.39-1.39-.81-2.86-1.17-3.98-9.29-29.1-31.41-51.63-59.87-62.03C40.98 9.49 51.89 5.96 64 6zM6 64c0-17.51 7.76-33.21 20.03-43.85C49.37 27.63 68.5 43.6 79.67 64.79c-1.45-.64-2.98-1.13-4.58-1.45-6.5-1.35-13.39-2.1-20.3-2.1-17.28.03-33.84 4.58-48 12.4C6.26 70.51 6 67.33 6 64zm60.39 42.48c6.53 1.37 13.47 2.12 20.42 2.12 5.31 0 10.59-.44 15.72-1.25a57.781 57.781 0 01-29.43 13.94c-4.26-5-7.96-10.4-11.05-16.17 1.38.59 2.83 1.05 4.34 1.36zm-.45 15.49c-.64.02-1.29.03-1.94.03-9.73.03-18.59-2.26-26.63-6.45a91.065 91.065 0 0111.58-28.14c.18 1.57.53 3.13.99 4.52 3.57 10.89 9.08 21.14 16 30.04zM54.25 70.43c-10.42 11.68-18.29 26.2-22.27 41.94-11.43-7.58-20.01-19.1-23.82-32.62 13.79-8.04 29.5-12.54 46.63-12.51.96 0 1.91.01 2.86.04-1.24.93-2.38 1.98-3.4 3.15z" /></svg>