<svg xmlns="http://www.w3.org/2000/svg" viewBox="18.4 17.52 63.2 64.96"><path  d="M82.2 50.8c0 3.3-.7 7.4-1.8 11.5-.8 2.9-1.9 5.5-3.2 8.2-2 4.1-4.7 7.8-7.9 11.1l-.6.6c-.5.4-1 .4-1.5-.1-1.1-1.1-2.2-2.2-3.4-3.3-.5-.5-1-1-1.5-1.4-.6-.5-.6-1.1 0-1.6 1.8-1.8 3.4-3.8 4.8-6s2.5-4.5 3.4-6.9c1-2.8 1.8-5.6 2.1-8.5.8-5.2.4-10.4-1.2-15.4-1.6-5.1-4.2-9.7-7.8-13.7-.4-.4-.8-.8-1.1-1.2-.2-.3-.4-.6-.3-.9.1-.2.2-.4.4-.6 1.5-1.4 3.1-3.1 4.9-4.7.6-.5 1.1-.5 1.7 0 1 1 2 2.1 3 3.3 4.8 6 7.8 12.8 9.3 20.2.5 2.8.7 5.6.7 9.4z"/><path d="M63 50c0 4.5-1.1 8.9-3.1 13.1-1.3 2.8-3.1 5.4-5.3 7.6l-.2.2c-.5.5-1 .5-1.5 0-1.7-1.6-3.3-3.2-5-4.9-.4-.4-.5-.9-.1-1.4l1.8-2.1c2.2-3.1 3.5-6.5 4-10.2.4-2.9.2-5.7-.7-8.5-.9-3.2-2.6-6-4.9-8.5-.6-.6-.5-1.1 0-1.7 1.6-1.5 3.2-3.1 4.8-4.6.1-.1.2-.2.3-.2.5-.3.9-.3 1.3.1.8.7 1.5 1.6 2.1 2.4 2.7 3.4 4.4 7.3 5.5 11.4.7 2.4 1 4.8 1 7.3z"/><path d="M43.1 48.9c-.1-1.7-.4-3.4-1.1-5-1.1-2.8-3-5-5.6-6.5-2.2-1.3-4.7-1.8-7.2-1.8h-9.4c-.6 0-.8.2-.8.9v27.9c0 .4.2.6.7.6h8.6c1.6 0 3-.3 4.4-.6 4.5-1 7.7-3.6 9.3-7.8 1-2.5 1.3-5.1 1.1-7.7zm-18.4 1.2v-8.4c0-.6.3-.7.9-.7H29c3.2 0 5.4 2.4 6.3 5.4.7 2.5.7 5.4-.2 7.8-.7 1.7-1.8 3-3.5 3.7-1 .4-2 .6-3 .6h-2.9c-.7 0-1-.2-1-.8v-7.6z"/></svg>