<svg xmlns="http://www.w3.org/2000/svg" viewBox="0 0 54 54" fill="none"><defs><mask id="a"><rect width="100%" height="100%" fill="#fff"/><path d="M6 27C6 15.402 15.402 6 27 6s21 9.402 21 21h-5.25c0-8.698-7.051-15.75-15.75-15.75-8.698 0-15.75 7.052-15.75 15.75 0 8.699 7.052 15.75 15.75 15.75V48C15.402 48 6 38.598 6 27zm21 12.6c-6.959 0-12.6-5.641-12.6-12.6S20.041 14.4 27 14.4 39.6 20.041 39.6 27h-4.582A8.018 8.018 0 1027 35.018V39.6z" fill="#000"/></mask></defs><path mask="url(#a)" d="M54 27c0 14.912-12.088 27-27 27S0 41.912 0 27 12.088 0 27 0s27 12.088 27 27z" /></svg>