<svg xmlns="http://www.w3.org/2000/svg" viewBox="0 0 512 512"><path d="M428.522 0H83.478C37.446 0 0 37.446 0 83.478v345.043C0 474.554 37.446 512 83.478 512h345.043C474.554 512 512 474.554 512 428.522V83.478C512 37.446 474.554 0 428.522 0zM122.435 439.652c-27.619 0-50.087-22.468-50.087-50.087 0-27.619 22.468-50.087 50.087-50.087 27.619 0 50.087 22.468 50.087 50.087 0 27.619-22.468 50.087-50.087 50.087zM256 422.957c-18.413 0-33.391-14.978-33.391-33.391 0-55.234-44.935-100.174-100.174-100.174-18.413 0-33.391-14.978-33.391-33.391s14.978-33.391 33.391-33.391c92.065 0 166.956 74.897 166.956 166.956 0 18.412-14.978 33.391-33.391 33.391zm133.565 0c-18.413 0-33.391-14.978-33.391-33.391 0-128.886-104.859-233.739-233.739-233.739-18.413 0-33.391-14.978-33.391-33.391 0-18.413 14.978-33.391 33.391-33.391 165.707 0 300.522 134.815 300.522 300.522 0 18.411-14.979 33.39-33.392 33.39z"/></svg>